<?xml version="1.0" standalone="no"?>
<!DOCTYPE svg PUBLIC "-//W3C//DTD SVG 20010904//EN"
 "http://www.w3.org/TR/2001/REC-SVG-20010904/DTD/svg10.dtd">
<svg version="1.0" xmlns="http://www.w3.org/2000/svg"
 width="512.000000pt" height="512.000000pt" viewBox="0 0 512.000000 512.000000"
 preserveAspectRatio="xMidYMid meet">

<g transform="translate(0.000000,512.000000) scale(0.100000,-0.100000)"
fill="#000000" stroke="none">
<path d="M1360 4702 c-13 -10 -89 -149 -169 -308 l-146 -289 -82 -5 c-125 -8
-118 12 -118 -316 l0 -276 28 -24 28 -24 1659 0 1659 0 28 24 28 24 0 277 0
277 -24 19 c-17 14 -39 19 -80 19 -31 0 -86 3 -122 6 l-66 7 -22 44 -21 44 20
26 c11 14 20 34 20 44 0 31 -197 416 -222 433 -20 14 -142 16 -1199 16 -1126
0 -1178 -1 -1199 -18z"/>
<path d="M1061 3354 c-25 -32 -25 -30 -6 -197 8 -73 58 -580 110 -1127 53
-547 110 -1127 128 -1289 33 -290 34 -294 61 -318 l27 -23 1179 0 1179 0 26
22 c25 22 26 32 61 338 19 173 77 756 129 1295 52 539 99 1027 105 1085 17
167 16 181 -9 202 -48 38 -131 7 -131 -50 0 -12 -5 -67 -11 -122 -11 -92 -14
-101 -35 -106 -55 -14 -79 -83 -44 -127 12 -15 27 -27 34 -27 10 0 12 -14 8
-52 -3 -29 -42 -433 -86 -898 l-82 -845 -1144 0 -1145 0 -17 180 c-9 99 -46
493 -82 875 -37 382 -66 703 -66 713 0 16 59 17 1089 17 1086 0 1088 0 1115
21 35 27 36 86 3 117 l-23 22 -1102 0 -1102 0 -4 23 c-3 12 -10 72 -16 132
-13 132 -27 159 -87 163 -34 3 -44 -1 -62 -24z m2626 -2451 c-3 -27 -14 -114
-23 -195 l-17 -148 -1087 0 -1087 0 -17 148 c-9 81 -20 168 -23 195 l-6 47
1133 0 1133 0 -6 -47z"/>
<path d="M2411 2514 c-190 -51 -347 -215 -397 -414 -22 -88 -15 -233 16 -315
122 -324 489 -467 791 -309 224 118 346 388 284 629 -50 197 -210 360 -400
410 -74 19 -222 19 -294 -1z"/>
</g>
</svg>
